<?xml version="1.0" encoding="utf-8"?>
<!-- Generator: Adobe Illustrator 19.2.0, SVG Export Plug-In . SVG Version: 6.00 Build 0)  -->
<svg version="1.1" id="Layer_1" xmlns="http://www.w3.org/2000/svg" xmlns:xlink="http://www.w3.org/1999/xlink" x="0px" y="0px"
	 viewBox="0 0 200 200" style="enable-background:new 0 0 200 200;" xml:space="preserve">
<style type="text/css">
	.st0{fill:#D5333E;}
</style>
<g id="circle_1_">
	<path class="st0" d="M100,0C44.8,0,0,44.8,0,100s44.8,100,100,100c55.2,0,100-44.8,100-100S155.2,0,100,0z M100,184
		c-46.3,0-84-37.7-84-84s37.7-84,84-84c46.3,0,84,37.7,84,84S146.3,184,100,184z"/>
</g>
<path class="st0" d="M109.2,48.7c-0.7,0-1.4,0.2-2.1,0.4c1.4,0.9,2.1,2.1,2.5,3.5c0,0.2,0.1,0.3,0.1,0.5c0,0.2,0.1,0.3,0.1,0.5
	c0.1,2.3-0.6,2.6-1.1,4c-0.8,1.8-0.6,3.7,0.4,5.2c0.1,0.2,0.2,0.4,0.3,0.6c-1-6.7,4.6-7.7,5.6-9.9c0.1-1.8-1.4-3.1-2.6-3.9
	C111.1,48.9,110.1,48.7,109.2,48.7L109.2,48.7z M117.6,50.2c-0.1,0.6,0,0.5-0.1,0.8c0,0.2,0,0.5-0.1,0.7c-0.1,0.2-0.1,0.4-0.2,0.6
	c-0.1,0.2-0.1,0.4-0.2,0.6c-0.1,0.2-0.2,0.4-0.3,0.6c-0.1,0.1-0.1,0.2-0.2,0.3c-0.1,0.1-0.1,0.2-0.2,0.2c-0.1,0.2-0.3,0.4-0.4,0.5
	c-0.2,0.2-0.3,0.3-0.5,0.5v0c-0.2,0.1-0.3,0.3-0.5,0.4c-0.6,0.4-1.2,0.7-1.8,1.1c-0.2,0.1-0.4,0.2-0.5,0.4c-0.2,0.1-0.3,0.3-0.5,0.4
	c-0.2,0.2-0.3,0.3-0.5,0.5c-0.1,0.2-0.3,0.3-0.4,0.5c-0.1,0.2-0.3,0.4-0.4,0.6c-0.1,0.2-0.2,0.4-0.3,0.6c-0.1,0.2-0.2,0.4-0.2,0.6
	c-0.1,0.2-0.1,0.5-0.2,0.7c0,0.1,0,0.2-0.1,0.3c0,0.1,0,0.2-0.1,0.3c0,0.2,0,0.5,0,0.7c0,0.2,0,0.3,0,0.5c0,0.2,0,0.4,0.1,0.7
	c0,0.2,0.1,0.4,0.1,0.6c0.1,0.2,0.1,0.4,0.2,0.6c0.1,0.1,0.1,0.3,0.2,0.4l-6.1-2.4c-1-0.3-2.1-0.6-3.1-0.8c-0.6-0.1-1.1-0.3-1.7-0.4
	c-1.6-0.3-3.2-0.6-4.8-0.7c-0.1,0-0.1,0-0.1,0c-1.6-0.2-3.2-0.2-4.8-0.2c-1.2,0-2.3,0.1-3.5,0.1c-1.6,0.1-3.2,0.3-4.9,0.6
	c-0.4,0.1-0.8,0.1-1.2,0.2c-0.8,0.2-1.6,0.3-2.4,0.5c-0.4,0.1-0.8,0.2-1.2,0.3c-0.4,0.2-0.8,0.3-1.1,0.5c-0.3,0.1-0.6,0.3-0.9,0.4
	c-0.1,0-0.1,0-0.1,0.1c-0.3,0.1-0.5,0.2-0.7,0.4c-0.1,0-0.1,0.1-0.2,0.1c-0.3,0.1-0.6,0.3-0.8,0.4c-0.2,0.1-0.4,0.2-0.5,0.3
	c-0.1,0.1-0.2,0.1-0.2,0.1c-0.2,0.1-0.5,0.3-0.7,0.4c-0.2,0.1-0.5,0.3-0.6,0.4c-0.2,0.1-0.4,0.2-0.5,0.4c0,0-0.1,0-0.1,0.1
	c-0.2,0.1-0.3,0.2-0.5,0.4c0,0,0,0-0.1,0.1c-0.1,0.1-0.3,0.2-0.4,0.3c-0.1,0-0.1,0.1-0.2,0.1c-0.1,0.1-0.3,0.2-0.4,0.3
	c0,0.1-0.1,0.1-0.1,0.1c-0.2,0.2-0.3,0.3-0.5,0.5c0,0,0,0-0.1,0.1c-0.2,0.1-0.3,0.3-0.5,0.5c0,0,0,0.1-0.1,0.1
	c-0.1,0.1-0.3,0.3-0.4,0.4c-0.1,0.1-0.1,0.1-0.2,0.2c-0.1,0.2-0.3,0.3-0.5,0.5c0,0.1-0.1,0.1-0.1,0.1c-0.2,0.2-0.4,0.4-0.6,0.6
	c0,0-0.1,0.1-0.1,0.1c-0.4,0.5-0.9,0.9-1.4,1.3c-0.5,0.4-1,0.8-1.5,1.2c-0.5,0.4-1,0.7-1.6,1c-0.5,0.3-1.1,0.6-1.7,0.8
	c-0.6,0.2-1.1,0.5-1.7,0.6c-1.1,0.2-2.3,0.7-3.2,0.8c-0.2,0-0.5,0.1-0.7,0.1c-0.2,0.1-0.5,0.1-0.7,0.2c-0.2,0.1-0.4,0.2-0.6,0.2
	c-0.2,0.1-0.4,0.2-0.6,0.3c-0.2,0.1-0.4,0.2-0.6,0.4c-0.2,0.1-0.4,0.3-0.5,0.5c-0.2,0.1-0.4,0.3-0.5,0.5c-0.2,0.2-0.3,0.3-0.5,0.5
	c-0.1,0.2-0.3,0.4-0.4,0.6c-0.1,0.2-0.3,0.4-0.4,0.6c-0.1,0.2-0.2,0.5-0.3,0.7c-0.1,0.2-0.2,0.5-0.2,0.7c-0.1,0.2-0.1,0.4-0.1,0.6
	c0,0,0,0.1,0,0.1c-0.1,0.2-0.1,0.6-0.1,0.7c0,0.2-0.1,0.3-0.1,0.5c0,0.1,0,0.2,0,0.3c0,0.2,0.1,0.3,0.1,0.5c0.1,0.2,0.1,0.3,0.2,0.5
	v0c0.1,0.2,0.2,0.3,0.3,0.5c0.1,0.2,0.2,0.3,0.3,0.5c0.1,0.1,0.3,0.3,0.5,0.4c0.2,0.2,0.3,0.3,0.5,0.4c0.6,0.6,0.8,0.7,1.6,1.2
	c0.1,0.1,0.3,0.1,0.4,0.2c0,0,0.1,0,0.1,0c0,0.1,0,0.1,0,0.1c0,0.2,0.1,0.4,0.1,0.6c0.1,0.2,0.1,0.5,0.2,0.6
	c0.1,0.2,0.1,0.3,0.2,0.5c0,0.1,0.1,0.1,0.1,0.1c0.1,0.2,0.2,0.4,0.3,0.6c0.1,0.2,0.3,0.4,0.4,0.6c0.1,0.2,0.3,0.3,0.5,0.5
	s0.3,0.3,0.5,0.5c0,0,0,0,0.1,0c0.2,0.1,0.3,0.3,0.5,0.4c0.2,0.1,0.4,0.2,0.6,0.3c0.2,0.1,0.4,0.2,0.6,0.3c0.2,0.1,0.3,0.1,0.5,0.2
	c0,0,0.1,0,0.1,0.1c0.1,0,0.2,0.1,0.3,0.1c-0.1,1.4-0.1,2.8,0.1,3.3c0.2,0.5,1.4-1.1,2.6-3c-0.2,1.8-0.3,4,0,4.6
	c0.3,0.7,1.9-1.4,3.3-3.7c18.9-4.4,36.1,8.7,37.9,27.1c-0.3-2.9-3.9-4.5-5.5-4.1c-0.8,2-2.2,4.5-4.3,6.1c0.2-1.8,0.1-3.6-0.3-5.3
	c-0.6,2.4-1.7,4.7-3.3,6.7c-2.5,0.2-5.1-1-6.4-2.9c-0.1-0.1-0.1-0.2-0.2-0.3c-0.1-0.2-0.2-0.4-0.2-0.6c-0.1-0.2-0.1-0.4-0.2-0.6
	c0-0.2,0-0.4,0-0.6v-0.4c0-0.2,0.1-0.4,0.1-0.6c0.1-0.2,0.1-0.4,0.2-0.6c0.1-0.2,0.2-0.4,0.3-0.6c0.5-1.3,0.5-2.3-0.4-2.9
	c-0.2-0.1-0.3-0.2-0.5-0.3c-0.1,0-0.2-0.1-0.3-0.1c-0.1,0-0.1-0.1-0.2-0.1c-0.2-0.1-0.4-0.1-0.6-0.1c-0.2-0.1-0.4-0.1-0.6-0.1
	c-0.2,0-0.4-0.1-0.6-0.1c-0.1,0-0.3,0-0.4,0c-0.2,0-0.4,0-0.6,0.1c-0.2,0-0.4,0.1-0.6,0.1c-0.2,0.1-0.4,0.1-0.6,0.2
	c-0.2,0.1-0.3,0.2-0.5,0.2c-0.2,0.1-0.3,0.2-0.5,0.3c-6.2,4-2.5,13.5,1.7,16.3c-1.6,0.3-3.2,0.6-3.7,1c0,0-0.1,0.1-0.1,0.1
	c1.1,0.7,2.3,1.3,3.6,1.8c1.7,0.6,3.5,1.1,4.3,1.3v0c2.2,0.5,4.4,0.6,6.7,0.5c11.8-0.8,21.5-9.8,23.2-21.6c0.1,0.2,0.1,0.5,0.2,0.7
	c0.1,0.5,0.2,1,0.2,1.5v0c0.1,0.2,0.1,0.5,0.1,0.7v0.1c0,0.2,0.1,0.5,0.1,0.7c0,0.3,0.1,0.6,0.1,0.9v0.4c0,0.1,0,0.3,0,0.4
	c0,0.2,0,0.3,0,0.5v0.4c0,0.2,0,0.3,0,0.5c0,0.1,0,0.2,0,0.3c0,0.2,0,0.4,0,0.6c0,0.1,0,0.2,0,0.2c0,0.2-0.1,0.4-0.1,0.6
	c0,0.1,0,0.2,0,0.2c0,0.3-0.1,0.5-0.1,0.8v0v0c-0.1,0.2-0.1,0.5-0.2,0.7v0.1c-0.1,0.2-0.1,0.5-0.2,0.7c0,0,0,0.1,0,0.1
	c-0.1,0.2-0.1,0.5-0.2,0.7v0.1c-0.1,0.3-0.2,0.5-0.2,0.7c0,0,0,0.1,0,0.1c-0.1,0.3-0.2,0.5-0.2,0.8c-0.1,0.3-0.2,0.5-0.3,0.8
	c-0.1,0.3-0.2,0.5-0.3,0.8c-0.1,0.3-0.2,0.5-0.3,0.8h0c-0.1,0.2-0.2,0.5-0.3,0.7c0,0.1-0.1,0.1-0.1,0.2c0,0,0,0.1-0.1,0.1
	c-1.7,3.5-4.3,6.5-7.5,8.9c-0.2,0.1-0.4,0.3-0.6,0.5c-0.1,0.1-0.1,0.1-0.2,0.1c-0.2,0.1-0.4,0.3-0.6,0.4l0.1,0.2h0
	c0.4-0.1,0.7-0.1,1.1-0.2h0c0.7-0.1,1.4-0.2,2.1-0.4c0.2,0,0.4-0.1,0.6-0.1c0.1,0,0.2-0.1,0.4-0.1c0.2,0,0.4-0.1,0.6-0.1
	c0.2-0.1,0.3-0.1,0.5-0.1c2.7-0.6,5.2-1.5,7.7-2.6c-4.2,5.8-9.9,10.4-16.5,13.5c3.1-0.2,6.1-0.7,9.1-1.6
	c10.7-3.2,19.8-10.4,25.2-20.1c-1.1,6.1-3.5,12-7.2,17.1c2.6-1.7,5-3.7,7.1-5.9c6-6.2,9.9-14.1,11.2-22.6c0.9,4.2,1.2,8.5,0.8,12.8
	c19.2-26.8,1.6-54.6-5.8-61.9c0-0.1-0.1-0.1-0.1-0.1c0,0,0,0,0,0.1c0,0,0,0,0-0.1c0,0.3,0,0.6-0.1,1c-0.1,0.6-0.2,1.2-0.3,1.8
	c-0.1,0.6-0.3,1.2-0.5,1.8c-0.2,0.6-0.4,1.1-0.6,1.7c-0.2,0.5-0.5,1.1-0.8,1.6c-0.3,0.5-0.6,1-1,1.5c-0.3,0.5-0.7,1-1.1,1.4
	c-0.4,0.5-0.8,0.9-1.3,1.3c-0.3,0.2-0.5,0.5-0.8,0.7c-0.2,0.2-0.4,0.3-0.6,0.5c-0.5,0.4-1,0.7-1.5,1c-0.5,0.3-1,0.6-1.6,0.9
	c-0.6,0.3-1.1,0.5-1.7,0.7c-0.6,0.2-1.1,0.4-1.7,0.6c-0.6,0.2-1.2,0.3-1.8,0.4c-0.6,0.1-1.2,0.2-1.8,0.2c-0.4,0-0.9,0.1-1.3,0.1
	c-0.6,0-1.2-0.1-1.8-0.1c-0.6-0.1-1.2-0.1-1.8-0.3c-0.6-0.1-1.2-0.3-1.8-0.5h0c0.6-0.1,1.2-0.1,1.8-0.2c0.6-0.1,1.2-0.2,1.8-0.4
	c0.6-0.2,1.2-0.3,1.7-0.6c0.6-0.2,1.1-0.5,1.7-0.7c0.6-0.3,1.1-0.6,1.6-0.9c0.5-0.3,1-0.7,1.5-1.1c0.5-0.4,0.9-0.8,1.4-1.2
	c0.5-0.4,0.9-0.9,1.2-1.3c0.4-0.5,0.8-1,1.1-1.4c0.1-0.1,0.1-0.2,0.2-0.3c0.3-0.4,0.5-0.9,0.8-1.3c0.3-0.5,0.6-1.1,0.8-1.6
	s0.5-1.1,0.6-1.7c0.2-0.6,0.3-1.1,0.5-1.7c0.1-0.6,0.2-1.2,0.3-1.8c0.1-0.6,0.1-1.2,0.1-1.8c0-0.4,0-0.9-0.1-1.3
	c-0.1-0.6-0.1-1.2-0.2-1.8c-0.1-0.6-0.2-1.2-0.4-1.8c-0.2-0.6-0.4-1.1-0.6-1.7s-0.5-1.1-0.7-1.7c-0.3-0.5-0.6-1.1-0.9-1.6
	c-0.3-0.5-0.7-1-1.1-1.5c-0.4-0.5-0.8-0.9-1.2-1.4c-0.2-0.2-0.5-0.5-0.7-0.7c-1.2-0.9-2.4-1.8-3.7-2.6c-0.2-0.1-0.3-0.2-0.5-0.3
	C119.3,50.7,118.4,50.5,117.6,50.2L117.6,50.2L117.6,50.2z"/>
</svg>
